<svg width="24" height="24" fill="none" xmlns="http://www.w3.org/2000/svg"><path d="M4.887 2.31c-1.34.102-2.475 1.133-2.578 2.577C2.103 6.948 2 9.835 2 12s.103 5.052.31 7.113c0 .722.309 1.34.824 1.753.515.412 1.031.722 1.753.825C6.948 21.897 9.835 22 12 22s5.052-.206 7.113-.31c1.34-.102 2.475-1.133 2.578-2.577.206-2.061.309-4.948.309-7.113s-.206-5.052-.31-7.113c-.102-1.34-1.133-2.475-2.577-2.578C17.052 2.103 14.165 2 12 2s-5.052.103-7.113.31zm7.078 4.742l4.674 3.71c.206.104.31.31.31.62 0 .206-.104.309-.207.515-.309.31-.721.412-1.03.103l-2.887-2.474v6.598c0 .412-.31.825-.825.825-.515 0-.825-.31-.825-.825V9.629L8.29 12.103c-.31.31-.825.206-1.031-.103-.31-.31-.206-.825.103-1.03l4.604-3.918z" fill="#030D45"/></svg>