<svg width="26" height="26" fill="none" xmlns="http://www.w3.org/2000/svg"><path d="M22.653 5.835c-.11-1.34-1.147-2.468-2.59-2.563-2.064-.196-4.95-.283-7.116-.272-2.165.011-5.05.13-7.112.347a2.202 2.202 0 00-1.748.834c-.41.517-.716 1.035-.815 1.757C3.077 8 2.989 10.888 3 13.053c.011 2.164.233 5.05.347 7.111.11 1.34 1.147 2.468 2.59 2.564 2.064.195 4.95.283 7.116.272 2.165-.012 5.05-.233 7.111-.347 1.34-.11 2.469-1.147 2.564-2.59.195-2.064.283-4.951.272-7.116-.012-2.165-.13-5.05-.347-7.112zm-4.705 7.104l-3.687 4.694c-.101.206-.307.31-.616.312-.207.001-.31-.101-.517-.203-.31-.308-.416-.72-.108-1.03l2.459-2.9-6.598.034a.813.813 0 01-.83-.82c-.002-.515.305-.826.82-.829l6.496-.034-2.49-2.874c-.31-.307-.21-.823.098-1.031.308-.311.824-.21 1.031.097l3.942 4.584z" fill="#030D45"/></svg>