<svg width="26" height="26" fill="none" xmlns="http://www.w3.org/2000/svg"><path d="M3.333 20.146c.107 1.34 1.142 2.47 2.585 2.569 2.063.199 4.95.293 7.115.286 2.165-.007 5.05-.12 7.112-.333a2.202 2.202 0 001.75-.83c.41-.517.718-1.034.819-1.756.2-2.062.293-4.949.286-7.114-.007-2.165-.223-5.05-.332-7.112-.108-1.34-1.142-2.47-2.586-2.57-2.063-.199-4.95-.292-7.115-.285-2.164.007-5.05.222-7.112.332-1.34.108-2.47 1.142-2.569 2.586-.2 2.062-.293 4.95-.286 7.114.007 2.165.12 5.051.333 7.113zm4.719-7.095l3.696-4.685c.102-.207.308-.31.617-.312.207 0 .31.102.517.205.31.308.414.72.106 1.03l-2.465 2.895 6.598-.021a.813.813 0 01.828.822c.001.515-.307.825-.823.827l-6.494.021 2.483 2.879c.31.308.21.824-.1 1.03-.308.311-.824.21-1.03-.099l-3.933-4.591z" fill="#030D45"/></svg>