<svg xmlns="http://www.w3.org/2000/svg" viewBox="0 0 512 512"><path d="M100.641 0c-14.139 0-25.6 11.461-25.6 25.6v460.8c0 14.139 11.461 25.6 25.6 25.6h375.467c14.139 0 25.6-11.461 25.6-25.6V85.333L416.375 0H100.641z" fill="#ecedef"/><path d="M441.975 85.333h59.733L416.375 0v59.733c0 14.139 11.461 25.6 25.6 25.6z" fill="#d9dcdf"/><path d="M399.308 42.667H75.041v153.6h324.267a8.533 8.533 0 008.533-8.533V51.2a8.533 8.533 0 00-8.533-8.533z" fill="#c6cacf"/><path d="M382.241 179.2H18.843c-7.602 0-11.41-9.191-6.034-14.567L75.041 102.4 12.809 40.167C7.433 34.791 11.241 25.6 18.843 25.6h363.398a8.533 8.533 0 018.533 8.533v136.533a8.533 8.533 0 01-8.533 8.534z" fill="#529e44"/><path d="M185.975 145.067h-25.6a8.533 8.533 0 01-8.533-8.533v-51.2a8.533 8.533 0 018.533-8.533h25.6a8.533 8.533 0 010 17.066h-17.067V128h17.067a8.535 8.535 0 010 17.067zm51.2 0h-25.6a8.533 8.533 0 010-17.066h17.067v-8.533h-17.067a8.533 8.533 0 01-8.533-8.533v-25.6a8.533 8.533 0 018.533-8.533h25.6a8.533 8.533 0 010 17.066h-17.067v8.533h17.067a8.533 8.533 0 018.533 8.533v25.6a8.534 8.534 0 01-8.533 8.533zm51.2 0h-25.6a8.533 8.533 0 010-17.066h17.067v-8.533h-17.067a8.533 8.533 0 01-8.533-8.533v-25.6a8.533 8.533 0 018.533-8.533h25.6a8.533 8.533 0 010 17.066h-17.067v8.533h17.067a8.533 8.533 0 018.533 8.533v25.6a8.534 8.534 0 01-8.533 8.533z" fill="#fff"/><g fill="#68727e"><path d="M220.108 452.267h-25.6c-14.115 0-25.6-11.485-25.6-25.6v-56.198l-14.567-14.568a8.533 8.533 0 010-12.067l14.567-14.567v-56.199c0-14.115 11.485-25.6 25.6-25.6h25.6a8.533 8.533 0 010 17.066h-25.6c-4.705 0-8.533 3.828-8.533 8.533V332.8a8.534 8.534 0 01-2.499 6.034l-11.033 11.033 11.034 11.033a8.534 8.534 0 012.499 6.034v59.733c0 4.705 3.828 8.533 8.533 8.533h25.6a8.533 8.533 0 11-.001 17.067zm162.133 0h-25.6a8.533 8.533 0 010-17.066h25.6c4.705 0 8.533-3.828 8.533-8.533v-59.733c0-2.263.899-4.434 2.499-6.034l11.034-11.033-11.034-11.033a8.534 8.534 0 01-2.499-6.034v-59.733c0-4.705-3.828-8.533-8.533-8.533h-25.6a8.533 8.533 0 010-17.066h25.6c14.115 0 25.6 11.485 25.6 25.6v56.198l14.567 14.568a8.533 8.533 0 010 12.067l-14.567 14.567v56.199c0 14.114-11.484 25.599-25.6 25.599zm-92.8-51.2h-1.067a8.533 8.533 0 010-17.066h1.067a8.533 8.533 0 010 17.066z"/><path d="M349.175 401.067h-1.067a8.533 8.533 0 010-17.066h1.067a8.533 8.533 0 010 17.066zm-119.467 0h-1.067a8.533 8.533 0 010-17.066h1.067a8.533 8.533 0 010 17.066z"/></g></svg>